# xmcd
#
# Track frame offsets:
#  150
#  14435
#  35627
#  56634
#  88303
#  103599
#  123632
#  142512
#  157999
#  174065
#  192520
#  208376
#  227656
#
# Disc length: 3175 seconds
#
# Revision: 0
# Processed by: cddbd v1.5.1PL2 Copyright (c) Steve Scherf et al.
# Submitted via: Collectorz.com_Music_Collector 6.10
#
DISCID=af0c650d
DTITLE=Ruben Hoeke Band - Sugar
DYEAR=2006
DGENRE=General Blues
TTITLE0=Backdoor Blues
TTITLE1=Swamp
TTITLE2=Enough Of That Stuff
TTITLE3=Midnight Prayer
TTITLE4=Dirty Little Women
TTITLE5=Cherry Red
TTITLE6=The World Today
TTITLE7=Soul On Fire
TTITLE8=Drinking On My Bed
TTITLE9=Misty Morning
TTITLE10=Sugar
TTITLE11=Lord I Feel Tired
TTITLE12=Rip This Joint
EXTD=
EXTT0=
EXTT1=
EXTT2=
EXTT3=
EXTT4=
EXTT5=
EXTT6=
EXTT7=
EXTT8=
EXTT9=
EXTT10=
EXTT11=
EXTT12=
PLAYORDER=
